<mxfile host="app.diagrams.net" modified="2022-04-25T07:10:28.441Z" agent="5.0 (Windows NT 10.0; Win64; x64) AppleWebKit/537.36 (KHTML, like Gecko) Chrome/100.0.4896.127 Safari/537.36 Edg/100.0.1185.50" etag="KPBPJxI7alrHGrCgyAU6" version="17.4.6" type="github">
  <diagram id="9XIYABXRgO2HxIjg95pE" name="Page-1">
    <mxGraphModel dx="1038" dy="547" grid="1" gridSize="10" guides="1" tooltips="1" connect="1" arrows="1" fold="1" page="1" pageScale="1" pageWidth="827" pageHeight="1169" math="0" shadow="0">
      <root>
        <mxCell id="0" />
        <mxCell id="1" parent="0" />
        <mxCell id="auO6Rn_0GEvyemg4ilZY-1" value="" style="endArrow=none;html=1;rounded=0;strokeWidth=2;" parent="1" edge="1">
          <mxGeometry width="50" height="50" relative="1" as="geometry">
            <mxPoint x="320" y="320" as="sourcePoint" />
            <mxPoint x="560" y="320" as="targetPoint" />
          </mxGeometry>
        </mxCell>
        <mxCell id="auO6Rn_0GEvyemg4ilZY-2" value="" style="endArrow=none;html=1;rounded=0;strokeWidth=2;" parent="1" edge="1">
          <mxGeometry width="50" height="50" relative="1" as="geometry">
            <mxPoint x="320" y="240" as="sourcePoint" />
            <mxPoint x="560" y="240" as="targetPoint" />
          </mxGeometry>
        </mxCell>
        <mxCell id="auO6Rn_0GEvyemg4ilZY-3" value="" style="endArrow=none;html=1;rounded=0;strokeWidth=2;" parent="1" edge="1">
          <mxGeometry width="50" height="50" relative="1" as="geometry">
            <mxPoint x="400" y="160" as="sourcePoint" />
            <mxPoint x="400" y="400" as="targetPoint" />
          </mxGeometry>
        </mxCell>
        <mxCell id="auO6Rn_0GEvyemg4ilZY-4" value="" style="endArrow=none;html=1;rounded=0;strokeWidth=2;" parent="1" edge="1">
          <mxGeometry width="50" height="50" relative="1" as="geometry">
            <mxPoint x="480" y="160" as="sourcePoint" />
            <mxPoint x="480" y="400" as="targetPoint" />
          </mxGeometry>
        </mxCell>
        <mxCell id="s80zitf4mlaxKe3Yetrm-1" value="&lt;font face=&quot;Cambria Math&quot; style=&quot;font-size: 17px;&quot;&gt;x&lt;/font&gt; = -11" style="text;html=1;align=center;verticalAlign=middle;resizable=0;points=[];autosize=1;strokeColor=none;fillColor=none;strokeWidth=1;fontSize=17;" vertex="1" parent="1">
          <mxGeometry x="360" y="395" width="70" height="30" as="geometry" />
        </mxCell>
        <mxCell id="s80zitf4mlaxKe3Yetrm-2" value="x = -3" style="text;html=1;align=center;verticalAlign=middle;resizable=0;points=[];autosize=1;strokeColor=none;fillColor=none;fontSize=17;" vertex="1" parent="1">
          <mxGeometry x="455" y="395" width="60" height="30" as="geometry" />
        </mxCell>
        <mxCell id="s80zitf4mlaxKe3Yetrm-3" value="y = -11" style="text;html=1;align=center;verticalAlign=middle;resizable=0;points=[];autosize=1;strokeColor=none;fillColor=none;fontSize=17;" vertex="1" parent="1">
          <mxGeometry x="255" y="310" width="70" height="30" as="geometry" />
        </mxCell>
        <mxCell id="s80zitf4mlaxKe3Yetrm-4" value="y = -3" style="text;html=1;align=center;verticalAlign=middle;resizable=0;points=[];autosize=1;strokeColor=none;fillColor=none;fontSize=17;" vertex="1" parent="1">
          <mxGeometry x="260" y="230" width="60" height="30" as="geometry" />
        </mxCell>
        <mxCell id="s80zitf4mlaxKe3Yetrm-5" value="R1" style="text;html=1;align=center;verticalAlign=middle;resizable=0;points=[];autosize=1;strokeColor=none;fillColor=none;fontSize=28;" vertex="1" parent="1">
          <mxGeometry x="335" y="175" width="50" height="40" as="geometry" />
        </mxCell>
        <mxCell id="s80zitf4mlaxKe3Yetrm-6" value="R2" style="text;html=1;align=center;verticalAlign=middle;resizable=0;points=[];autosize=1;strokeColor=none;fillColor=none;fontSize=28;" vertex="1" parent="1">
          <mxGeometry x="414" y="175" width="50" height="40" as="geometry" />
        </mxCell>
        <mxCell id="s80zitf4mlaxKe3Yetrm-7" value="R3" style="text;html=1;align=center;verticalAlign=middle;resizable=0;points=[];autosize=1;strokeColor=none;fillColor=none;fontSize=28;" vertex="1" parent="1">
          <mxGeometry x="500" y="175" width="50" height="40" as="geometry" />
        </mxCell>
        <mxCell id="s80zitf4mlaxKe3Yetrm-8" value="R4" style="text;html=1;align=center;verticalAlign=middle;resizable=0;points=[];autosize=1;strokeColor=none;fillColor=none;fontSize=28;" vertex="1" parent="1">
          <mxGeometry x="335" y="260" width="50" height="40" as="geometry" />
        </mxCell>
        <mxCell id="s80zitf4mlaxKe3Yetrm-9" value="R5" style="text;html=1;align=center;verticalAlign=middle;resizable=0;points=[];autosize=1;strokeColor=none;fillColor=none;fontSize=28;" vertex="1" parent="1">
          <mxGeometry x="414" y="260" width="50" height="40" as="geometry" />
        </mxCell>
        <mxCell id="s80zitf4mlaxKe3Yetrm-10" value="R6" style="text;html=1;align=center;verticalAlign=middle;resizable=0;points=[];autosize=1;strokeColor=none;fillColor=none;fontSize=28;" vertex="1" parent="1">
          <mxGeometry x="500" y="260" width="50" height="40" as="geometry" />
        </mxCell>
        <mxCell id="s80zitf4mlaxKe3Yetrm-11" value="R7" style="text;html=1;align=center;verticalAlign=middle;resizable=0;points=[];autosize=1;strokeColor=none;fillColor=none;fontSize=28;" vertex="1" parent="1">
          <mxGeometry x="335" y="340" width="50" height="40" as="geometry" />
        </mxCell>
        <mxCell id="s80zitf4mlaxKe3Yetrm-12" value="R8" style="text;html=1;align=center;verticalAlign=middle;resizable=0;points=[];autosize=1;strokeColor=none;fillColor=none;fontSize=28;" vertex="1" parent="1">
          <mxGeometry x="414" y="340" width="50" height="40" as="geometry" />
        </mxCell>
        <mxCell id="s80zitf4mlaxKe3Yetrm-13" value="R9" style="text;html=1;align=center;verticalAlign=middle;resizable=0;points=[];autosize=1;strokeColor=none;fillColor=none;fontSize=28;" vertex="1" parent="1">
          <mxGeometry x="500" y="340" width="50" height="40" as="geometry" />
        </mxCell>
      </root>
    </mxGraphModel>
  </diagram>
</mxfile>
